<svg width="17" height="16" viewBox="0 0 17 16" fill="none" xmlns="http://www.w3.org/2000/svg">
<path d="M5.00668 14.6666H11.9933C13.8333 14.6666 14.5667 13.5399 14.6533 12.1666L15 6.65992C15.0933 5.21992 13.9467 3.99992 12.5 3.99992C12.0933 3.99992 11.72 3.76659 11.5333 3.40659L11.0533 2.43992C10.7467 1.83325 9.94668 1.33325 9.26668 1.33325H7.74001C7.05334 1.33325 6.25334 1.83325 5.94668 2.43992L5.46668 3.40659C5.28001 3.76659 4.90668 3.99992 4.50001 3.99992C3.05334 3.99992 1.90668 5.21992 2.00001 6.65992L2.34668 12.1666C2.42668 13.5399 3.16668 14.6666 5.00668 14.6666Z" stroke="#0082C9" stroke-linecap="round" stroke-linejoin="round"/>
<path d="M7.5 5.33325H9.5" stroke="#0082C9" stroke-linecap="round" stroke-linejoin="round"/>
<path d="M8.50001 12.0001C9.69334 12.0001 10.6667 11.0267 10.6667 9.83341C10.6667 8.64008 9.69334 7.66675 8.50001 7.66675C7.30668 7.66675 6.33334 8.64008 6.33334 9.83341C6.33334 11.0267 7.30668 12.0001 8.50001 12.0001Z" stroke="#0082C9" stroke-linecap="round" stroke-linejoin="round"/>
</svg>
