<svg width="16" height="16" viewBox="0 0 16 16" fill="none" xmlns="http://www.w3.org/2000/svg">
<path d="M2.65926 9.77361L1.64594 8.76027C1.2326 8.34693 1.2326 7.66693 1.64594 7.25359L2.65926 6.24025C2.8326 6.06691 2.9726 5.72691 2.9726 5.48691V4.05356C2.9726 3.46689 3.4526 2.98691 4.03927 2.98691H5.4726C5.7126 2.98691 6.0526 2.84693 6.22593 2.6736L7.23926 1.66025C7.65259 1.24692 8.3326 1.24692 8.74593 1.66025L9.75928 2.6736C9.93261 2.84693 10.2726 2.98691 10.5126 2.98691H11.9459C12.5326 2.98691 13.0126 3.46689 13.0126 4.05356V5.48691C13.0126 5.72691 13.1526 6.06691 13.3259 6.24025L14.3393 7.25359C14.7526 7.66693 14.7526 8.34693 14.3393 8.76027L13.3259 9.77361C13.1526 9.94695 13.0126 10.2869 13.0126 10.5269V11.9602C13.0126 12.5469 12.5326 13.0269 11.9459 13.0269H10.5126C10.2726 13.0269 9.93261 13.1669 9.75928 13.3403L8.74593 14.3536C8.3326 14.7669 7.65259 14.7669 7.23926 14.3536L6.22593 13.3403C6.0526 13.1669 5.7126 13.0269 5.4726 13.0269H4.03927C3.4526 13.0269 2.9726 12.5469 2.9726 11.9602V10.5269C2.9726 10.2803 2.8326 9.94028 2.65926 9.77361Z" stroke="#7D7D7D" stroke-width="1.5" stroke-linecap="round" stroke-linejoin="round"/>
<path d="M6 10L10 6" stroke="#7D7D7D" stroke-width="1.5" stroke-linecap="round" stroke-linejoin="round"/>
<path d="M9.66292 9.66668H9.66891" stroke="#7D7D7D" stroke-width="2" stroke-linecap="round" stroke-linejoin="round"/>
<path d="M6.32967 6.33333H6.33566" stroke="#7D7D7D" stroke-width="2" stroke-linecap="round" stroke-linejoin="round"/>
</svg>
