<svg width="393" height="240" viewBox="0 0 393 240" fill="none" xmlns="http://www.w3.org/2000/svg">
<g clip-path="url(#clip0_311_3940)">
<rect width="393" height="240" fill="#EF4547"/>
<g style="mix-blend-mode:hard-light" opacity="0.25">
<ellipse cx="196.5" cy="207.5" rx="216.5" ry="90.5" fill="white"/>
</g>
<path d="M150.554 96.3527C145.363 89.436 133.177 73.1204 125.966 63.192C118.755 53.2635 100.355 53.8379 92.0562 55.3662C79.0417 58.0444 69.3011 69.918 66.0577 75.5201L-8.24569 204.217" stroke="#3D3D3D" stroke-width="10.5454"/>
<path d="M139.278 125.498C131.951 117.206 132.733 104.544 141.026 97.2164L147.291 91.6802C155.397 84.5183 167.773 85.2831 174.935 93.3884L175.234 93.7271L139.278 125.498Z" fill="#D4D4D4"/>
<path d="M130.318 178.685C123.31 170.536 121.801 158.239 126.123 144.498C130.446 130.757 140.245 116.699 153.366 105.415C166.486 94.1319 181.854 86.5478 196.087 84.3315C210.32 82.1152 222.253 85.4481 229.261 93.5971L179.789 136.141L130.318 178.685Z" fill="#D4D4D4"/>
<path d="M168.963 124.002C182.208 112.855 195.534 104.208 206.421 99.2655C211.849 96.8017 216.803 95.1974 220.91 94.7271C224.904 94.2698 228.807 94.8207 231.174 97.6328C233.54 100.445 233.417 104.385 232.284 108.242C231.12 112.208 228.693 116.816 225.339 121.743C218.61 131.627 207.815 143.281 194.57 154.428C181.326 165.575 168 174.222 157.113 179.164C151.685 181.628 146.731 183.232 142.624 183.702C138.63 184.16 134.727 183.609 132.36 180.797C129.993 177.985 130.117 174.045 131.249 170.188C132.414 166.221 134.841 161.614 138.195 156.686C144.924 146.803 155.718 135.149 168.963 124.002Z" fill="#3D3D3D" stroke="#9E9E9E" stroke-width="4.92021"/>
<path d="M168.431 225.019C165.861 219.559 165.58 200.638 167.165 191.378C176.329 198.817 187.454 212.301 188.625 216.57C191.882 228.439 173.82 236.471 168.431 225.019Z" fill="#76CBEA"/>
<path d="M179.235 209.203L183.405 215.084" stroke="#DAF5FF" stroke-width="2.03642" stroke-linecap="round"/>
<path d="M214.477 243.578C207.423 235.833 197.284 204.584 195.181 188.411C214.189 196.069 239.538 212.754 243.664 219.238C255.135 237.265 229.273 259.824 214.477 243.578Z" fill="#76CBEA"/>
<path d="M224.322 211.818L234.246 219.443" stroke="#DAF5FF" stroke-width="3.53544" stroke-linecap="round"/>
<path d="M265.371 162.658C258.628 162.182 239.981 152.107 231.798 145.492C244.082 140.605 263.347 137.108 268.16 138.298C281.542 141.607 279.512 163.655 265.371 162.658Z" fill="#76CBEA"/>
<path d="M255.825 143.447L263.854 142.589" stroke="#DAF5FF" stroke-width="2.28094" stroke-linecap="round"/>
<path d="M234.021 182.328C229.49 180.859 218.443 170.805 213.968 164.893C223.199 163.633 236.97 164.508 240.06 166.138C248.653 170.671 243.525 185.408 234.021 182.328Z" fill="#76CBEA"/>
<path d="M230.75 167.567L236.387 168.341" stroke="#DAF5FF" stroke-width="1.60746" stroke-linecap="round"/>
</g>
<defs>
<clipPath id="clip0_311_3940">
<rect width="393" height="240" fill="white"/>
</clipPath>
</defs>
</svg>

