<svg width="25" height="24" viewBox="0 0 25 24" fill="none" xmlns="http://www.w3.org/2000/svg">
<mask id="mask0_47_377" style="mask-type:luminance" maskUnits="userSpaceOnUse" x="0" y="0" width="25" height="24">
<path d="M24.5 0H0.5V24H24.5V0Z" fill="white"/>
</mask>
<g mask="url(#mask0_47_377)">
<path d="M12.5 18.75C12.09 18.75 11.75 18.41 11.75 18V15C11.75 14.59 12.09 14.25 12.5 14.25C12.91 14.25 13.25 14.59 13.25 15V18C13.25 18.41 12.91 18.75 12.5 18.75Z" fill="#9E9E9E"/>
<path d="M18.1 22.5608H6.89996C5.07996 22.5608 3.41996 21.1608 3.11996 19.3708L1.78996 11.4008C1.56996 10.1608 2.17996 8.5708 3.16996 7.7808L10.1 2.2308C11.44 1.1508 13.55 1.1608 14.9 2.2408L21.83 7.7808C22.81 8.5708 23.41 10.1608 23.21 11.4008L21.88 19.3608C21.58 21.1308 19.88 22.5608 18.1 22.5608ZM12.49 2.9308C11.96 2.9308 11.43 3.0908 11.04 3.4008L4.10996 8.9608C3.54996 9.4108 3.14996 10.4508 3.26996 11.1608L4.59996 19.1208C4.77996 20.1708 5.82996 21.0608 6.89996 21.0608H18.1C19.17 21.0608 20.22 20.1708 20.4 19.1108L21.73 11.1508C21.84 10.4508 21.44 9.3908 20.89 8.9508L13.96 3.4108C13.56 3.0908 13.02 2.9308 12.49 2.9308Z" fill="#9E9E9E"/>
</g>
</svg>
