<svg width="40" height="40" viewBox="0 0 40 40" fill="none" xmlns="http://www.w3.org/2000/svg">
<rect width="40" height="40" rx="16" fill="#FAFAFA"/>
<path d="M15.8333 20C12.5 20 12.5 21.4917 12.5 23.3333V24.1667C12.5 26.4667 12.5 28.3333 16.6667 28.3333H23.3333C26.6667 28.3333 27.5 26.4667 27.5 24.1667V23.3333C27.5 21.4917 27.5 20 24.1667 20C23.3333 20 23.1 20.175 22.6667 20.5L21.8167 21.4C20.8333 22.45 19.1667 22.45 18.175 21.4L17.3333 20.5C16.9 20.175 16.6667 20 15.8333 20Z" stroke="#0082C9" stroke-width="1.5" stroke-miterlimit="10" stroke-linecap="round" stroke-linejoin="round"/>
<path d="M25.8333 20V15C25.8333 13.1583 25.8333 11.6666 22.5 11.6666H17.5C14.1667 11.6666 14.1667 13.1583 14.1667 15V20" stroke="#0082C9" stroke-width="1.5" stroke-miterlimit="10" stroke-linecap="round" stroke-linejoin="round"/>
</svg>
