<svg width="45" height="44" viewBox="0 0 45 44" fill="none" xmlns="http://www.w3.org/2000/svg">
<g clip-path="url(#clip0_144_3399)">
<rect x="0.25" width="44" height="44" rx="12" fill="#E0F1FE"/>
<rect x="-0.25" width="44" height="44" rx="8.96296" fill="#2CBED4"/>
<path d="M12.8659 22.4343L26.3529 5.84667C26.7042 5.41465 27.3906 5.80363 27.2004 6.32696L22.7316 18.625C22.6219 18.9268 22.8249 19.2514 23.1442 19.2849L29.8944 19.9944C30.283 20.0353 30.4726 20.4898 30.2281 20.7947L16.6968 37.6651C16.348 38.1 15.6585 37.7142 15.8465 37.1895L20.3568 24.604C20.4648 24.3026 20.2619 23.9796 19.9435 23.9462L13.1975 23.2371C12.8074 23.1961 12.6185 22.7387 12.8659 22.4343Z" fill="#FEE04A"/>
</g>
<defs>
<clipPath id="clip0_144_3399">
<rect x="0.25" width="44" height="44" rx="12" fill="white"/>
</clipPath>
</defs>
</svg>
