<svg width="44" height="44" viewBox="0 0 44 44" fill="none" xmlns="http://www.w3.org/2000/svg">
<g clip-path="url(#clip0_144_3402)">
<rect width="44" height="44" rx="12" fill="#E0F1FE"/>
<rect x="-0.5" width="44" height="44" rx="8.96296" fill="#EF4547"/>
<rect x="21.8643" y="12.663" width="4.7445" height="23.7849" rx="0.862637" transform="rotate(18.5614 21.8643 12.663)" fill="#F6A055"/>
<path d="M32.121 17.0929L12.2226 10.4113L12.714 8.94763L21.3546 6.92696L21.3686 6.8853L34.1117 11.1643L32.121 17.0929Z" fill="#595656"/>
<path d="M9.33229 13.296L11.0882 15.653L13.8725 14.7115L12.1734 17.1098L13.9293 19.4669L11.1233 18.5921L9.42416 20.9904L9.38907 18.0514L6.58306 17.1765L9.36738 16.235L9.33229 13.296Z" fill="url(#paint0_linear_144_3402)"/>
<path d="M27.5391 26.9444L30.947 28.1588L33.1551 25.2931L33.0531 28.9094L36.461 30.1238L32.9902 31.1444L32.8883 34.7607L30.8451 31.7752L27.3743 32.7957L29.5823 29.93L27.5391 26.9444Z" fill="url(#paint1_linear_144_3402)"/>
</g>
<defs>
<linearGradient id="paint0_linear_144_3402" x1="9.33229" y1="13.296" x2="11.9242" y2="20.9605" gradientUnits="userSpaceOnUse">
<stop stop-color="#F8DC78"/>
<stop offset="1" stop-color="#FBC169"/>
</linearGradient>
<linearGradient id="paint1_linear_144_3402" x1="27.5391" y1="26.9444" x2="35.4279" y2="33.0227" gradientUnits="userSpaceOnUse">
<stop stop-color="#F8DC78"/>
<stop offset="1" stop-color="#FBC169"/>
</linearGradient>
<clipPath id="clip0_144_3402">
<rect width="44" height="44" rx="12" fill="white"/>
</clipPath>
</defs>
</svg>
