<svg width="20" height="20" viewBox="0 0 20 20" fill="none" xmlns="http://www.w3.org/2000/svg">
<path d="M18.3333 7.49997V12.5C18.3333 14.5833 17.9166 16.0416 16.9833 16.9833L11.6666 11.6666L18.1083 5.22498C18.2583 5.88331 18.3333 6.63331 18.3333 7.49997Z" stroke="#0082C9" stroke-width="1.5" stroke-linecap="round" stroke-linejoin="round"/>
<path d="M18.1083 5.22496L5.22495 18.1083C2.71662 17.5333 1.66663 15.8 1.66663 12.5V7.49996C1.66663 3.33329 3.33329 1.66663 7.49996 1.66663H12.5C15.8 1.66663 17.5333 2.71663 18.1083 5.22496Z" stroke="#0082C9" stroke-width="1.5" stroke-linecap="round" stroke-linejoin="round"/>
<path d="M16.9833 16.9833C16.0417 17.9166 14.5833 18.3333 12.5 18.3333H7.49998C6.63332 18.3333 5.88331 18.2583 5.22498 18.1083L11.6667 11.6666L16.9833 16.9833Z" stroke="#0082C9" stroke-width="1.5" stroke-linecap="round" stroke-linejoin="round"/>
<path d="M5.19997 6.64998C5.76664 4.20831 9.43332 4.20831 9.99998 6.64998C10.325 8.08331 9.42497 9.29998 8.6333 10.05C8.0583 10.6 7.14999 10.6 6.56665 10.05C5.77499 9.29998 4.86664 8.08331 5.19997 6.64998Z" stroke="#0082C9" stroke-width="1.5"/>
<path d="M7.57884 7.25004H7.58632" stroke="#0082C9" stroke-width="2" stroke-linecap="round" stroke-linejoin="round"/>
</svg>
