<svg width="24" height="24" viewBox="0 0 24 24" fill="none" xmlns="http://www.w3.org/2000/svg">
<path d="M17.82 6.53012C17.16 3.93012 14.81 2.00012 12 2.00012C8.69 2.00012 6 4.69012 6 8.00012V13.0001C6 14.4601 6.52 15.8001 7.39 16.8401" stroke="#FAFAFA" stroke-width="1.5" stroke-linecap="round" stroke-linejoin="round"/>
<path d="M18 9.9801V13.0001C18 16.3101 15.31 19.0001 12 19.0001C11.27 19.0001 10.56 18.8701 9.92004 18.6301" stroke="#FAFAFA" stroke-width="1.5" stroke-linecap="round" stroke-linejoin="round"/>
<path d="M5.85999 19.5801C7.46999 21.0801 9.62999 22.0001 12 22.0001C16.97 22.0001 21 17.9701 21 13.0001V11.0001" stroke="#FAFAFA" stroke-width="1.5" stroke-linecap="round" stroke-linejoin="round"/>
<path d="M21.5 2.99011L2.5 21.9901" stroke="#FAFAFA" stroke-width="1.5" stroke-linecap="round" stroke-linejoin="round"/>
<path d="M11.55 5.50013V2.26013" stroke="#292D32" stroke-width="1.5" stroke-linecap="round" stroke-linejoin="round"/>
<path d="M8.5 3.50012V7.50012" stroke="#292D32" stroke-width="1.5" stroke-linecap="round" stroke-linejoin="round"/>
</svg>
