<svg width="24" height="24" viewBox="0 0 24 24" fill="none" xmlns="http://www.w3.org/2000/svg">
<path d="M11.9999 19.0001C15.3099 19.0001 17.9999 16.3101 17.9999 13.0001V8.00012C17.9999 4.69012 15.3099 2.00012 11.9999 2.00012C8.68994 2.00012 5.99994 4.69012 5.99994 8.00012V13.0001C5.99994 16.3101 8.68994 19.0001 11.9999 19.0001Z" stroke="#141414" stroke-width="1.5" stroke-linecap="round" stroke-linejoin="round"/>
<path d="M2.99994 11.0001V13.0001C2.99994 17.9701 7.02994 22.0001 11.9999 22.0001C16.9699 22.0001 20.9999 17.9701 20.9999 13.0001V11.0001" stroke="#141414" stroke-width="1.5" stroke-linecap="round" stroke-linejoin="round"/>
<path d="M9.10992 7.48018C10.8899 6.83018 12.8299 6.83018 14.6099 7.48018" stroke="#141414" stroke-width="1.5" stroke-linecap="round" stroke-linejoin="round"/>
<path d="M10.03 10.4802C11.23 10.1502 12.5 10.1502 13.7 10.4802" stroke="#141414" stroke-width="1.5" stroke-linecap="round" stroke-linejoin="round"/>
</svg>
