<svg width="25" height="24" viewBox="0 0 25 24" fill="none" xmlns="http://www.w3.org/2000/svg">
<path d="M20.5 7V17C20.5 21 19.5 22 15.5 22H9.5C5.5 22 4.5 21 4.5 17V7C4.5 3 5.5 2 9.5 2H15.5C19.5 2 20.5 3 20.5 7Z" stroke="#FAFAFA" stroke-width="1.5" stroke-linecap="round" stroke-linejoin="round"/>
<path d="M14.5 5.5H10.5" stroke="#FAFAFA" stroke-width="1.5" stroke-linecap="round" stroke-linejoin="round"/>
<path d="M12.5 19.1C13.356 19.1 14.05 18.406 14.05 17.55C14.05 16.694 13.356 16 12.5 16C11.6439 16 10.95 16.694 10.95 17.55C10.95 18.406 11.6439 19.1 12.5 19.1Z" stroke="#E9F4F5" stroke-width="1.5" stroke-linecap="round" stroke-linejoin="round"/>
</svg>
