<svg width="393" height="240" viewBox="0 0 393 240" fill="none" xmlns="http://www.w3.org/2000/svg">
<g clip-path="url(#clip0_323_4144)">
<rect width="393" height="240" fill="#2CBED4"/>
<ellipse cx="196.5" cy="207.5" rx="216.5" ry="90.5" fill="#61CEDF"/>
<g style="mix-blend-mode:hard-light" opacity="0.25">
<circle cx="195.751" cy="129.751" r="72.7513" fill="#FFEF89"/>
</g>
<path d="M186.198 75.3027C212.042 70.1624 237.04 86.3382 242.031 111.432C243.197 117.292 243.167 123.119 242.109 128.676C241.667 135.048 233.318 151.125 231.995 153.288C230.858 155.147 228.553 163.336 227.542 167.198L203.239 172.032L203.239 172.03L183.011 176.053C180.599 172.871 175.337 166.187 173.576 164.905C171.426 163.341 156.285 150.601 154.478 145.249C151.626 140.707 149.543 135.595 148.44 130.047C143.448 104.953 160.353 80.4432 186.198 75.3027Z" fill="#FEE04A"/>
<ellipse cx="211.779" cy="202.345" rx="17.2379" ry="9.54243" transform="rotate(-11.2491 211.779 202.345)" fill="#7D7D7D"/>
<path d="M182.71 176.113L227.996 167.106L232.439 189.447C233.434 194.449 230.186 199.311 225.183 200.306L198.012 205.71C193.01 206.705 188.148 203.456 187.153 198.454L182.71 176.113Z" fill="#D4D4D4"/>
<path d="M190.791 183.607L206.943 180.395L223.095 177.182" stroke="#3D3D3D" stroke-width="2.46256" stroke-linecap="round"/>
<path d="M192.172 190.553L208.324 187.34L224.476 184.128" stroke="#3D3D3D" stroke-width="2.46256" stroke-linecap="round"/>
<path d="M193.553 197.496L209.705 194.283L225.857 191.071" stroke="#3D3D3D" stroke-width="2.46256" stroke-linecap="round"/>
</g>
<defs>
<clipPath id="clip0_323_4144">
<rect width="393" height="240" fill="white"/>
</clipPath>
</defs>
</svg>

