<svg width="52" height="52" viewBox="0 0 52 52" fill="none" xmlns="http://www.w3.org/2000/svg">
<rect width="52" height="52" rx="10.5926" fill="#2CBED4"/>
<g style="mix-blend-mode:hard-light" opacity="0.25">
<circle cx="26.1376" cy="24.8996" r="18.9153" fill="#FFEF89"/>
</g>
<path d="M23.6538 10.7429C30.3733 9.40653 36.8727 13.6121 38.1704 20.1365C38.4715 21.6503 38.4621 23.1554 38.1923 24.5919C38.1004 26.2288 35.9067 30.4529 35.5605 31.0188C35.2649 31.5018 34.6656 33.631 34.4029 34.6353L22.825 36.9381C22.198 36.1108 20.8296 34.373 20.3717 34.0398C19.8125 33.6328 15.8798 30.3226 15.4075 28.9305C14.6654 27.7491 14.1235 26.4196 13.8365 24.9764C12.5389 18.452 16.9343 12.0794 23.6538 10.7429Z" fill="#FEE04A"/>
<ellipse cx="30.3049" cy="43.7739" rx="4.48186" ry="2.48103" transform="rotate(-11.2491 30.3049 43.7739)" fill="#7D7D7D"/>
<path d="M22.7467 36.9536L34.5211 34.6117L35.6764 40.4204C35.9351 41.721 35.0905 42.985 33.7899 43.2437L26.7253 44.6488C25.4247 44.9075 24.1607 44.0629 23.9021 42.7623L22.7467 36.9536Z" fill="#D4D4D4"/>
<path d="M24.8479 38.9021L29.0474 38.0668L33.247 37.2316" stroke="#3D3D3D" stroke-width="0.640267" stroke-linecap="round"/>
<path d="M25.2069 40.708L29.4064 39.8727L33.6059 39.0375" stroke="#3D3D3D" stroke-width="0.640267" stroke-linecap="round"/>
<path d="M25.566 42.5132L29.7656 41.6779L33.9651 40.8427" stroke="#3D3D3D" stroke-width="0.640267" stroke-linecap="round"/>
</svg>
