<svg width="52" height="52" viewBox="0 0 52 52" fill="none" xmlns="http://www.w3.org/2000/svg">
<g clip-path="url(#clip0_306_3447)">
<rect width="52" height="52" rx="10.5926" fill="#EF4547"/>
<path d="M-4.51226 5.18074C-3.76582 3.89149 -1.52414 1.15892 1.471 0.542568C3.38083 0.190854 7.61536 0.0586557 9.27488 2.34358C10.9344 4.6285 13.7388 8.38333 14.9336 9.97514" stroke="#3D3D3D" stroke-width="2.4269"/>
<path d="M12.3386 16.6826C10.6524 14.7742 10.8325 11.8601 12.7409 10.1739L14.1828 8.89977C16.0481 7.25155 18.8964 7.42757 20.5447 9.29291L20.6135 9.37085L12.3386 16.6826Z" fill="#D4D4D4"/>
<path d="M10.2765 28.923C8.66373 27.0476 8.31651 24.2174 9.31125 21.0552C10.306 17.8929 12.5612 14.6575 15.5808 12.0607C18.6003 9.464 22.1369 7.71862 25.4125 7.20856C28.6881 6.69849 31.4343 7.46553 33.0471 9.34094L21.6618 19.132L10.2765 28.923Z" fill="#D4D4D4"/>
<path d="M19.1698 16.3383C22.2179 13.7729 25.285 11.7825 27.7906 10.6451C29.0397 10.0781 30.1802 9.7094 31.1254 9.60116C32.0444 9.49595 32.9429 9.6223 33.4875 10.2694C34.0322 10.9165 34.0039 11.8239 33.7432 12.7116C33.4752 13.6244 32.9166 14.6846 32.1446 15.8184C30.5961 18.0931 28.1113 20.7753 25.0632 23.3407C22.0151 25.9059 18.9486 27.8959 16.4431 29.0333C15.1941 29.6002 14.054 29.9697 13.1089 30.0779C12.1898 30.1832 11.2909 30.0562 10.7462 29.409C10.2016 28.7618 10.2305 27.8551 10.4911 26.9675C10.7591 26.0547 11.3171 24.9939 12.0891 23.8599C13.6375 21.5854 16.1218 18.9036 19.1698 16.3383Z" fill="#3D3D3D" stroke="#9E9E9E" stroke-width="1.13233"/>
<path d="M19.0477 39.5861C18.4564 38.3295 18.3916 33.9751 18.7564 31.8441C20.8654 33.5561 23.4256 36.6593 23.6952 37.6418C24.4447 40.3732 20.2879 42.2216 19.0477 39.5861Z" fill="#76CBEA"/>
<path d="M21.5343 35.9464L22.4939 37.2998" stroke="#DAF5FF" stroke-width="0.468657" stroke-linecap="round"/>
<path d="M29.645 43.8574C28.0216 42.0749 25.6883 34.8834 25.2042 31.1613C29.5785 32.9237 35.4125 36.7636 36.3621 38.2559C39.0019 42.4045 33.05 47.5962 29.645 43.8574Z" fill="#76CBEA"/>
<path d="M31.9104 36.5482L34.1943 38.303" stroke="#DAF5FF" stroke-width="0.813639" stroke-linecap="round"/>
<path d="M41.3573 25.2345C39.8056 25.125 35.5142 22.8063 33.631 21.284C36.458 20.1592 40.8916 19.3545 41.9993 19.6284C45.079 20.3899 44.6117 25.464 41.3573 25.2345Z" fill="#76CBEA"/>
<path d="M39.1605 20.8134L41.0082 20.6158" stroke="#DAF5FF" stroke-width="0.52493" stroke-linecap="round"/>
<path d="M34.1427 29.7613C33.0999 29.4233 30.5576 27.1095 29.5276 25.7489C31.6521 25.4589 34.8212 25.6603 35.5325 26.0355C37.51 27.0786 36.3299 30.4702 34.1427 29.7613Z" fill="#76CBEA"/>
<path d="M33.3898 26.3643L34.6872 26.5425" stroke="#DAF5FF" stroke-width="0.369937" stroke-linecap="round"/>
</g>
<defs>
<clipPath id="clip0_306_3447">
<rect width="52" height="52" rx="10.5926" fill="white"/>
</clipPath>
</defs>
</svg>
