<svg width="52" height="52" viewBox="0 0 52 52" fill="none" xmlns="http://www.w3.org/2000/svg">
<rect width="52" height="52" rx="10.5926" fill="#0082C9"/>
<rect x="17.5193" y="7.01611" width="14.2507" height="35.9291" rx="3.02645" transform="rotate(4.0291 17.5193 7.01611)" fill="#F5F9FC"/>
<circle cx="23.5663" cy="23.2" r="4.83661" transform="rotate(4.0291 23.5663 23.2)" fill="#D4D4D4"/>
<rect x="22.8383" y="21.244" width="23.4057" height="3.80019" rx="1.78836" transform="rotate(4.0291 22.8383 21.244)" fill="#5D5D5D"/>
<circle cx="22.4741" cy="38.7078" r="1.9001" transform="rotate(4.0291 22.4741 38.7078)" fill="#9E9E9E"/>
<path d="M8.44724 30.5521L10.0485 32.7016L12.5876 31.843L11.0381 34.0301L12.6394 36.1796L10.0805 35.3818L8.53101 37.5689L8.49901 34.8887L5.94014 34.0909L8.47924 33.2323L8.44724 30.5521Z" fill="url(#paint0_linear_306_3661)"/>
<path d="M34.4806 12.8136L37.5883 13.9211L39.6019 11.3077L39.5089 14.6055L42.6167 15.713L39.4515 16.6437L39.3586 19.9415L37.4954 17.2189L34.3302 18.1496L36.3438 15.5362L34.4806 12.8136Z" fill="url(#paint1_linear_306_3661)"/>
<defs>
<linearGradient id="paint0_linear_306_3661" x1="8.44724" y1="30.5521" x2="10.8109" y2="37.5417" gradientUnits="userSpaceOnUse">
<stop stop-color="#F8DC78"/>
<stop offset="1" stop-color="#FBC169"/>
</linearGradient>
<linearGradient id="paint1_linear_306_3661" x1="34.4806" y1="12.8136" x2="41.6746" y2="18.3565" gradientUnits="userSpaceOnUse">
<stop stop-color="#F8DC78"/>
<stop offset="1" stop-color="#FBC169"/>
</linearGradient>
</defs>
</svg>
