<svg width="393" height="240" viewBox="0 0 393 240" fill="none" xmlns="http://www.w3.org/2000/svg">
<g clip-path="url(#clip0_323_4106)">
<rect width="393" height="240" fill="#2CBED4"/>
<g style="mix-blend-mode:hard-light" opacity="0.25">
<ellipse cx="196.5" cy="207.5" rx="216.5" ry="90.5" fill="white"/>
</g>
<path d="M128.883 84.5541L142.207 89.3024L150.841 78.0974L150.442 92.237L163.767 96.9854L150.196 100.976L149.798 115.115L141.809 103.442L128.238 107.432L136.872 96.2275L128.883 84.5541Z" fill="url(#paint0_linear_323_4106)"/>
<path d="M260.135 168.62L266.667 177.39L277.026 173.886L270.705 182.809L277.237 191.579L266.798 188.324L260.476 197.247L260.346 186.312L249.906 183.058L260.265 179.555L260.135 168.62Z" fill="url(#paint1_linear_323_4106)"/>
<path d="M146.486 203.048L153.659 180.905L154.764 142.766L254.68 145.662C252.238 146.462 246.434 148.761 242.753 151.557C239.073 154.353 238.402 159.8 238.527 162.174C238.106 173.338 237.29 196.826 237.388 201.474C237.51 207.283 236.116 210.29 234.475 211.839C233.162 213.078 230.397 213.995 229.179 214.298L154.496 212.134C149.275 211.982 147.991 211.219 146.305 209.284C144.957 207.735 145.864 204.481 146.486 203.048Z" fill="#BAD5E5"/>
<rect x="211.736" y="69.9603" width="51.0668" height="76.02" rx="9.43718" transform="rotate(1.66012 211.736 69.9603)" fill="#EEEEEE"/>
<rect x="124.226" y="134.767" width="130.859" height="8.99473" rx="4.49736" transform="rotate(1.66012 124.226 134.767)" fill="#EEEEEE"/>
<path d="M133.572 132.825C133.681 129.081 136.804 126.133 140.549 126.242L194.566 127.807C198.31 127.916 201.258 131.039 201.149 134.784L201.085 136.995L133.508 135.036L133.572 132.825Z" fill="#BAD5E5"/>
<path d="M205.056 66.2832C208.801 66.3918 211.749 69.5153 211.64 73.2599L210.074 127.277C209.966 131.021 206.842 133.969 203.098 133.86L200.887 133.796L202.846 66.2192L205.056 66.2832Z" fill="#BAD5E5"/>
<path d="M214.876 151.909C214.758 155.984 213.463 159.985 211.066 163.684C208.668 167.383 205.215 170.707 200.903 173.466C196.591 176.225 191.505 178.366 185.936 179.765C180.366 181.164 174.422 181.796 168.442 181.622C162.462 181.449 156.564 180.475 151.085 178.755C145.605 177.035 140.652 174.604 136.507 171.6C132.362 168.595 129.108 165.077 126.928 161.246C124.749 157.414 123.688 153.345 123.806 149.269L169.341 150.589L214.876 151.909Z" fill="#EEEEEE"/>
<circle cx="201.312" cy="129.165" r="8.70458" transform="rotate(1.66012 201.312 129.165)" fill="#B4C5CF"/>
<rect x="123.966" y="143.758" width="94.8799" height="8.70458" rx="4.35229" transform="rotate(1.66012 123.966 143.758)" fill="#BAD5E5"/>
</g>
<defs>
<linearGradient id="paint0_linear_323_4106" x1="128.883" y1="84.5541" x2="159.728" y2="108.32" gradientUnits="userSpaceOnUse">
<stop stop-color="#F8DC78"/>
<stop offset="1" stop-color="#FBC169"/>
</linearGradient>
<linearGradient id="paint1_linear_323_4106" x1="260.135" y1="168.62" x2="269.778" y2="197.136" gradientUnits="userSpaceOnUse">
<stop stop-color="#F8DC78"/>
<stop offset="1" stop-color="#FBC169"/>
</linearGradient>
<clipPath id="clip0_323_4106">
<rect width="393" height="240" fill="white"/>
</clipPath>
</defs>
</svg>

