<svg width="52" height="52" viewBox="0 0 52 52" fill="none" xmlns="http://www.w3.org/2000/svg">
<rect width="52" height="52" rx="10.5926" fill="#2CBED4"/>
<path d="M11.1629 13.1578L14.2707 14.2652L16.2842 11.6519L16.1913 14.9497L19.299 16.0571L16.1339 16.9878L16.0409 20.2857L14.1777 17.5631L11.0126 18.4938L13.0262 15.8804L11.1629 13.1578Z" fill="url(#paint0_linear_306_3572)"/>
<path d="M41.7751 32.7647L43.2987 34.81L45.7147 33.993L44.2404 36.0741L45.764 38.1194L43.3292 37.3603L41.8548 39.4414L41.8243 36.8911L39.3895 36.132L41.8055 35.315L41.7751 32.7647Z" fill="url(#paint1_linear_306_3572)"/>
<path d="M15.2686 40.7944L16.9416 35.6299L17.1994 26.7346L40.5029 27.41C39.9334 27.5966 38.5796 28.1328 37.7212 28.785C36.8628 29.4371 36.7064 30.7076 36.7354 31.2614C36.6374 33.865 36.447 39.3433 36.4698 40.4272C36.4982 41.7821 36.1732 42.4835 35.7904 42.8448C35.4842 43.1338 34.8393 43.3475 34.5552 43.4183L17.1367 42.9134C15.9191 42.8781 15.6196 42.7002 15.2264 42.2488C14.9119 41.8876 15.1235 41.1287 15.2686 40.7944Z" fill="#BAD5E5"/>
<rect x="30.4871" y="9.75403" width="11.9105" height="17.7303" rx="2.20106" transform="rotate(1.66012 30.4871 9.75403)" fill="#EEEEEE"/>
<rect x="10.077" y="24.8691" width="30.5205" height="2.09786" rx="1.04893" transform="rotate(1.66012 10.077 24.8691)" fill="#EEEEEE"/>
<path d="M12.2566 24.4162C12.2819 23.5429 13.0104 22.8554 13.8838 22.8807L26.4823 23.2459C27.3557 23.2712 28.0431 23.9997 28.0178 24.873L28.0029 25.3887L12.2417 24.9319L12.2566 24.4162Z" fill="#BAD5E5"/>
<path d="M28.9292 8.89643C29.8025 8.92174 30.49 9.65025 30.4647 10.5236L30.0995 23.1221C30.0742 23.9955 29.3457 24.6829 28.4724 24.6576L27.9567 24.6427L28.4135 8.88148L28.9292 8.89643Z" fill="#BAD5E5"/>
<path d="M31.2193 28.8671C31.1918 29.8176 30.8898 30.7508 30.3307 31.6135C29.7715 32.4762 28.9661 33.2514 27.9604 33.8949C26.9548 34.5385 25.7686 35.0377 24.4695 35.3641C23.1705 35.6905 21.784 35.8377 20.3894 35.7972C18.9947 35.7568 17.6191 35.5296 16.3412 35.1285C15.0632 34.7274 13.9079 34.1603 12.9412 33.4596C11.9745 32.7589 11.2153 31.9384 10.7071 31.0447C10.1988 30.1511 9.95138 29.202 9.97893 28.2515L20.5991 28.5593L31.2193 28.8671Z" fill="#EEEEEE"/>
<circle cx="28.0558" cy="23.5626" r="2.03019" transform="rotate(1.66012 28.0558 23.5626)" fill="#B4C5CF"/>
<rect x="10.0163" y="26.966" width="22.1291" height="2.03019" rx="1.0151" transform="rotate(1.66012 10.0163 26.966)" fill="#BAD5E5"/>
<defs>
<linearGradient id="paint0_linear_306_3572" x1="11.1629" y1="13.1578" x2="18.3569" y2="18.7007" gradientUnits="userSpaceOnUse">
<stop stop-color="#F8DC78"/>
<stop offset="1" stop-color="#FBC169"/>
</linearGradient>
<linearGradient id="paint1_linear_306_3572" x1="41.7751" y1="32.7647" x2="44.0242" y2="39.4155" gradientUnits="userSpaceOnUse">
<stop stop-color="#F8DC78"/>
<stop offset="1" stop-color="#FBC169"/>
</linearGradient>
</defs>
</svg>
