<svg width="45" height="44" viewBox="0 0 45 44" fill="none" xmlns="http://www.w3.org/2000/svg">
<g clip-path="url(#clip0_144_3396)">
<rect x="0.5" width="44" height="44" rx="12" fill="#E0F1FE"/>
<rect width="44" height="44" rx="8.96296" fill="#0082C9"/>
<path d="M30.7887 16.1232C26.9771 10.8113 23.8701 9.47077 12.3282 8.84308L11.6491 21.3306C16.099 21.5726 19.1153 22.0156 20.3777 23.4231C21.6401 24.8307 21.3857 27.9689 21.1498 32.3075L33.6373 32.9866C34.1001 24.4762 34.4137 21.1752 30.7887 16.1232Z" fill="#61D5F1"/>
<path d="M26.8113 11.9753C27.1799 12.2278 27.5327 12.4989 27.8729 12.7939L26.9851 13.132C26.3978 13.3554 26.107 13.5697 25.9904 13.7263L25.6664 14.1625L25.3425 14.5977C25.1275 14.8865 24.9539 15.1228 24.8208 15.3067L24.4148 15.8675C24.4135 15.8693 24.4032 15.8838 24.3988 15.9273C24.3939 15.9768 24.3968 16.0593 24.4269 16.1831L24.5501 16.6886L24.6742 17.1941C24.7315 17.4293 24.8451 17.6372 25.0253 17.8235L25.3985 18.2086L25.7716 18.5946C25.9531 18.7823 26.0994 19.0172 26.144 19.2995C26.1894 19.5875 26.1184 19.8574 25.9856 20.0899L25.7414 20.5177L25.496 20.9464C25.3189 21.2566 25.1176 21.5564 24.8917 21.8446L24.2633 22.6457C24.0504 22.9173 23.9379 23.0616 23.9153 23.0923L23.872 23.1506L23.8308 23.207L23.8185 23.2161C23.6604 23.4874 23.3133 23.5816 23.0404 23.4251C22.7667 23.2679 22.6717 22.9179 22.8286 22.6439L22.8783 22.5576L22.9302 22.4675L22.9907 22.4161L22.9948 22.4124C23.0301 22.3645 23.1572 22.2027 23.3627 21.9404L23.677 21.539L23.9912 21.1384C24.1839 20.8926 24.3543 20.6393 24.5029 20.379L24.7473 19.9502L24.9916 19.5224C25.0066 19.4961 25.0104 19.4801 25.0118 19.4746C25.0069 19.4632 24.9921 19.4346 24.9489 19.39L24.5757 19.0039L24.2035 18.6189C23.8866 18.2912 23.6691 17.904 23.5621 17.4652L23.3159 16.4542C23.2143 16.0374 23.2135 15.5764 23.4879 15.1971L23.6909 14.9167L23.893 14.6362C24.0303 14.4464 24.2084 14.2053 24.4252 13.914L25.073 13.0436C25.3884 12.6199 25.9319 12.3094 26.5786 12.0634L26.8113 11.9753Z" fill="#024474"/>
<rect x="6.57709" y="7.91699" width="6.12764" height="13.8707" rx="1.33694" transform="rotate(3.11288 6.57709 7.91699)" fill="#024474"/>
<rect x="34.3506" y="32.6907" width="6.12764" height="13.8707" rx="1.33694" transform="rotate(93.1129 34.3506 32.6907)" fill="#024474"/>
<path d="M26.1343 19.7195C25.9067 19.5004 25.5446 19.5072 25.3254 19.7348C25.1063 19.9624 25.1132 20.3246 25.3408 20.5437L25.7375 20.1316L26.1343 19.7195ZM25.8096 20.2009L25.4128 20.6131L25.4692 20.6673L25.5381 20.7045L25.8096 20.2009ZM26.6942 20.678L26.4227 21.1815L26.6942 20.678ZM27.8133 21.6456L27.2972 21.8923L27.8133 21.6456ZM28.3155 23.8251L28.8657 23.9816L28.3155 23.8251ZM28.2148 24.1788L27.6646 24.0223L28.2148 24.1788ZM28.1198 24.5471L28.6529 24.3397L28.1198 24.5471ZM28.1255 24.5616L27.5923 24.769L28.6618 24.3628L28.1255 24.5616ZM28.1015 24.497L28.6369 24.2955L27.5651 24.6959L28.1015 24.497ZM27.6014 24.7921C27.7127 25.0878 28.0426 25.2373 28.3383 25.126C28.6339 25.0147 28.7834 24.6848 28.6721 24.3891L28.1367 24.5906L27.6014 24.7921ZM25.7375 20.1316L25.3408 20.5437L25.4128 20.6131L25.8096 20.2009L26.2063 19.7888L26.1343 19.7195L25.7375 20.1316ZM25.8096 20.2009L25.5381 20.7045L26.4227 21.1815L26.6942 20.678L26.9657 20.1745L26.0811 19.6974L25.8096 20.2009ZM26.6942 20.678L26.4227 21.1815C26.9841 21.4842 27.2216 21.7342 27.2972 21.8923L27.8133 21.6456L28.3294 21.399C28.0924 20.9029 27.5838 20.5078 26.9657 20.1745L26.6942 20.678ZM27.8133 21.6456L27.2972 21.8923L27.5316 22.3829L28.0478 22.1363L28.5639 21.8896L28.3294 21.399L27.8133 21.6456ZM28.0478 22.1363L27.5316 22.3829L27.7661 22.8736L28.2823 22.6269L28.7984 22.3802L28.5639 21.8896L28.0478 22.1363ZM28.2823 22.6269L27.7661 22.8736C27.8904 23.1336 27.8802 23.2646 27.8659 23.3148L28.4161 23.4713L28.9663 23.6278C29.0862 23.2063 28.9868 22.7744 28.7984 22.3802L28.2823 22.6269ZM28.4161 23.4713L27.8659 23.3148L27.7652 23.6685L28.3155 23.8251L28.8657 23.9816L28.9663 23.6278L28.4161 23.4713ZM28.3155 23.8251L27.7652 23.6685L27.6646 24.0223L28.2148 24.1788L28.765 24.3354L28.8657 23.9816L28.3155 23.8251ZM28.2148 24.1788L27.6646 24.0223C27.6307 24.1414 27.6045 24.2365 27.5868 24.3049C27.5783 24.3381 27.57 24.3715 27.5639 24.4007C27.5611 24.4141 27.5565 24.4366 27.5531 24.462C27.5515 24.474 27.5485 24.498 27.5477 24.5279C27.5476 24.532 27.5408 24.6366 27.5867 24.7545L28.1198 24.5471L28.6529 24.3397C28.6677 24.3777 28.6758 24.4107 28.6805 24.4338C28.6853 24.4576 28.6878 24.478 28.6892 24.4932C28.6919 24.5227 28.6917 24.5464 28.6913 24.56C28.6906 24.5869 28.688 24.6071 28.687 24.6143C28.6849 24.6303 28.6827 24.6398 28.6834 24.6366C28.6842 24.6327 28.6874 24.6189 28.6947 24.5907C28.7087 24.5363 28.7318 24.4521 28.765 24.3354L28.2148 24.1788ZM28.1198 24.5471L27.5867 24.7545L27.5923 24.769L28.1255 24.5616L28.6586 24.3542L28.6529 24.3397L28.1198 24.5471ZM28.1255 24.5616L28.6618 24.3628L28.6379 24.2982L28.1015 24.497L27.5651 24.6959L27.5891 24.7605L28.1255 24.5616ZM28.1015 24.497L27.5661 24.6985L27.6014 24.7921L28.1367 24.5906L28.6721 24.3891L28.6369 24.2955L28.1015 24.497Z" fill="#024474"/>
</g>
<defs>
<clipPath id="clip0_144_3396">
<rect x="0.5" width="44" height="44" rx="12" fill="white"/>
</clipPath>
</defs>
</svg>
