<svg width="16" height="16" viewBox="0 0 16 16" fill="none" xmlns="http://www.w3.org/2000/svg">
<path d="M14.6667 4.00004V5.61337C14.6667 6.66671 14 7.33337 12.9467 7.33337H10.6667V2.67337C10.6667 1.93337 11.2733 1.33337 12.0133 1.33337C12.74 1.34004 13.4067 1.63337 13.8867 2.11337C14.3667 2.60004 14.6667 3.26671 14.6667 4.00004Z" stroke="#0082C9" stroke-width="1.5" stroke-miterlimit="10" stroke-linecap="round" stroke-linejoin="round"/>
<path d="M1.33334 4.66671V14C1.33334 14.5534 1.95999 14.8667 2.39999 14.5334L3.54 13.68C3.80667 13.48 4.18001 13.5067 4.42001 13.7467L5.52665 14.86C5.78665 15.12 6.21335 15.12 6.47335 14.86L7.59335 13.74C7.82668 13.5067 8.2 13.48 8.46 13.68L9.60002 14.5334C10.04 14.86 10.6667 14.5467 10.6667 14V2.66671C10.6667 1.93337 11.2667 1.33337 12 1.33337H4.66667H4C2 1.33337 1.33334 2.52671 1.33334 4.00004V4.66671Z" stroke="#0082C9" stroke-width="1.5" stroke-miterlimit="10" stroke-linecap="round" stroke-linejoin="round"/>
<path d="M4 6H8" stroke="#0082C9" stroke-width="1.5" stroke-linecap="round" stroke-linejoin="round"/>
<path d="M4.5 8.66663H7.5" stroke="#0082C9" stroke-width="1.5" stroke-linecap="round" stroke-linejoin="round"/>
</svg>
