<svg width="393" height="240" viewBox="0 0 393 240" fill="none" xmlns="http://www.w3.org/2000/svg">
<g clip-path="url(#clip0_311_3938)">
<rect width="393" height="240" fill="#1CBD22"/>
<g style="mix-blend-mode:hard-light" opacity="0.25">
<ellipse cx="196.5" cy="207.5" rx="216.5" ry="90.5" fill="#FFEF89"/>
</g>
<path d="M248.404 106.131C229.764 80.1543 214.569 73.5987 158.125 70.5291L154.804 131.598C176.566 132.781 191.317 134.947 197.49 141.831C203.664 148.714 202.42 164.061 201.266 185.279L262.334 188.6C264.598 146.981 266.132 130.838 248.404 106.131Z" fill="#61D5F1"/>
<path d="M228.912 85.8062C230.709 87.0345 232.423 88.3611 234.082 89.796L229.991 91.3916C226.983 92.5637 225.512 93.6469 224.942 94.4119L221.773 98.6699C220.72 100.084 219.869 101.24 219.218 102.14L218.225 103.512L217.233 104.883C217.23 104.888 217.179 104.953 217.157 105.172C217.133 105.414 217.147 105.817 217.295 106.425L218.501 111.37C218.782 112.521 219.339 113.535 220.22 114.446L222.045 116.332L223.869 118.217C224.757 119.135 225.472 120.282 225.69 121.664C225.912 123.072 225.565 124.391 224.916 125.529L223.72 127.623L222.524 129.716C221.658 131.234 220.67 132.7 219.565 134.11L218.028 136.07L216.492 138.03C215.45 139.359 214.902 140.064 214.792 140.213L214.58 140.5L214.565 140.521L214.549 140.543L214.26 140.917C213.461 142.168 211.816 142.585 210.514 141.839C209.174 141.071 208.711 139.362 209.479 138.021L209.622 137.771L209.736 137.622L210.111 137.134L210.291 136.89C210.463 136.657 211.081 135.863 212.088 134.579L215.161 130.658C216.104 129.455 216.939 128.217 217.666 126.943L218.862 124.848L220.057 122.755C220.128 122.631 220.15 122.555 220.158 122.526C220.137 122.474 220.067 122.334 219.848 122.108L218.024 120.222L216.199 118.337C214.649 116.734 213.589 114.842 213.066 112.695L211.86 107.749C211.363 105.711 211.358 103.459 212.701 101.603L213.693 100.231L214.685 98.8605C215.356 97.9319 216.224 96.7539 217.284 95.3294L220.454 91.0714C221.998 88.9979 224.712 87.4432 227.959 86.1778L228.912 85.8062Z" fill="#004B80"/>
<rect x="130" y="66" width="29.9664" height="67.833" rx="6.53813" transform="rotate(3.11288 130 66)" fill="#004B80"/>
<rect x="265.823" y="187.152" width="29.9664" height="67.833" rx="6.53813" transform="rotate(93.1129 265.823 187.152)" fill="#004B80"/>
<path d="M225.642 123.719C224.529 122.647 222.758 122.681 221.687 123.794C220.615 124.907 220.649 126.678 221.762 127.749L223.702 125.734L225.642 123.719ZM223.774 125.803L221.834 127.819L222.099 128.074L222.421 128.252L223.774 125.803ZM228.24 128.271L226.887 130.72L228.24 128.271ZM233.853 133.138L236.377 131.932L233.853 133.138ZM235 135.538L232.476 136.744L235 135.538ZM236.801 142.066L234.111 141.301L236.801 142.066ZM235.352 147.327L237.959 146.313L235.352 147.327ZM235.38 147.398L232.773 148.413L232.783 148.44L232.795 148.467L235.38 147.398ZM235.4 147.447L238.018 146.461L238.002 146.419L237.985 146.377L235.4 147.447ZM232.817 148.526C233.361 149.972 234.975 150.703 236.421 150.158C237.867 149.614 238.598 148.001 238.053 146.555L235.435 147.54L232.817 148.526ZM223.702 125.734L221.762 127.749L221.834 127.819L223.774 125.803L225.714 123.788L225.642 123.719L223.702 125.734ZM223.774 125.803L222.421 128.252L226.887 130.72L228.24 128.271L229.593 125.822L225.127 123.355L223.774 125.803ZM228.24 128.271L226.887 130.72C229.753 132.303 230.959 133.57 231.329 134.344L233.853 133.138L236.377 131.932C235.219 129.507 232.683 127.53 229.593 125.822L228.24 128.271ZM233.853 133.138L231.329 134.344L232.476 136.744L235 135.538L237.524 134.331L236.377 131.932L233.853 133.138ZM235 135.538L232.476 136.744L233.623 139.143L236.147 137.937L238.671 136.731L237.524 134.331L235 135.538ZM236.147 137.937L233.623 139.143C234.23 140.415 234.18 141.055 234.111 141.301L236.801 142.066L239.492 142.832C240.078 140.771 239.592 138.658 238.671 136.731L236.147 137.937ZM236.801 142.066L234.111 141.301L233.618 143.031L236.309 143.796L239 144.562L239.492 142.832L236.801 142.066ZM236.309 143.796L233.618 143.031L233.126 144.761L235.817 145.526L238.508 146.292L239 144.562L236.309 143.796ZM235.817 145.526L233.126 144.761C232.96 145.343 232.832 145.808 232.746 146.143C232.704 146.305 232.664 146.468 232.634 146.611C232.62 146.677 232.598 146.787 232.581 146.911C232.573 146.97 232.559 147.087 232.554 147.234C232.554 147.254 232.521 147.765 232.745 148.342L235.352 147.327L237.959 146.313C238.032 146.499 238.071 146.66 238.094 146.773C238.118 146.89 238.13 146.989 238.137 147.064C238.15 147.208 238.149 147.324 238.147 147.39C238.144 147.522 238.131 147.621 238.126 147.656C238.116 147.734 238.105 147.781 238.108 147.765C238.112 147.746 238.128 147.678 238.163 147.54C238.232 147.275 238.345 146.863 238.508 146.292L235.817 145.526ZM235.352 147.327L232.745 148.342L232.773 148.413L235.38 147.398L237.987 146.384L237.959 146.313L235.352 147.327ZM235.38 147.398L232.795 148.467L232.815 148.516L235.4 147.447L237.985 146.377L237.965 146.329L235.38 147.398ZM235.4 147.447L232.782 148.432L232.817 148.526L235.435 147.54L238.053 146.555L238.018 146.461L235.4 147.447Z" fill="#004B80"/>
<path d="M264.865 65.0414L273.05 76.0294L286.03 71.6401L278.109 82.8203L286.295 93.8083L273.214 89.7301L265.293 100.91L265.13 87.2097L252.049 83.1315L265.029 78.7421L264.865 65.0414Z" fill="url(#paint0_linear_311_3938)"/>
<path d="M280.567 102.533L289.32 104.706L294.091 97.0532L294.729 106.049L303.482 108.222L295.124 111.609L295.762 120.604L289.958 113.702L281.6 117.089L286.371 109.436L280.567 102.533Z" fill="url(#paint1_linear_311_3938)"/>
<path d="M114.276 164.72L134.77 172.023L148.048 154.789L147.435 176.537L167.929 183.84L147.056 189.977L146.444 211.724L134.157 193.77L113.285 199.908L126.563 182.674L114.276 164.72Z" fill="url(#paint2_linear_311_3938)"/>
</g>
<defs>
<linearGradient id="paint0_linear_311_3938" x1="264.865" y1="65.0414" x2="276.948" y2="100.771" gradientUnits="userSpaceOnUse">
<stop stop-color="#F8DC78"/>
<stop offset="1" stop-color="#FBC169"/>
</linearGradient>
<linearGradient id="paint1_linear_311_3938" x1="280.567" y1="102.533" x2="301.634" y2="115.667" gradientUnits="userSpaceOnUse">
<stop stop-color="#F8DC78"/>
<stop offset="1" stop-color="#FBC169"/>
</linearGradient>
<linearGradient id="paint2_linear_311_3938" x1="114.276" y1="164.72" x2="161.716" y2="201.272" gradientUnits="userSpaceOnUse">
<stop stop-color="#F8DC78"/>
<stop offset="1" stop-color="#FBC169"/>
</linearGradient>
<clipPath id="clip0_311_3938">
<rect width="393" height="240" fill="white"/>
</clipPath>
</defs>
</svg>
