<svg width="52" height="52" viewBox="0 0 52 52" fill="none" xmlns="http://www.w3.org/2000/svg">
<rect width="52" height="52" rx="10.5926" fill="#1CBD22"/>
<path d="M36.2756 19.5344C31.771 13.2567 28.0991 11.6725 14.4587 10.9307L13.6561 25.6886C18.915 25.9746 22.4798 26.4981 23.9717 28.1616C25.4636 29.8251 25.163 33.5339 24.8842 38.6614L39.6421 39.464C40.1891 29.4062 40.5598 25.505 36.2756 19.5344Z" fill="#61D5F1"/>
<path d="M31.5728 14.6302C32.0084 14.9285 32.4246 15.2496 32.8267 15.5982L31.79 15.9946C31.0899 16.2622 30.7443 16.5169 30.6063 16.7019L30.2233 17.217L29.8403 17.7311C29.586 18.0727 29.3798 18.3525 29.2225 18.5699L28.9835 18.9012L28.7435 19.2324C28.7427 19.2334 28.7305 19.249 28.725 19.3018C28.7191 19.3603 28.7227 19.4581 28.7584 19.6049L29.0494 20.8002C29.1172 21.0782 29.2526 21.3233 29.4657 21.5436L29.9065 21.9989L30.3472 22.4551C30.5616 22.6768 30.7343 22.9543 30.787 23.2878C30.8407 23.6279 30.7569 23.9468 30.6003 24.2214L30.3106 24.728L30.022 25.2335C29.8126 25.6003 29.5741 25.9551 29.307 26.2959L28.935 26.7695L28.5641 27.2433C28.3132 27.5633 28.1802 27.7337 28.153 27.7705L28.1022 27.8402L28.0706 27.8824L28.0458 27.9065L28.0425 27.9132C27.8569 28.237 27.4433 28.3488 27.1194 28.1632C26.7958 27.9775 26.6839 27.5648 26.8693 27.2411L26.919 27.1538L26.9654 27.0742L27.0306 27.0083L27.0482 26.9897L27.0661 26.9672C27.1084 26.91 27.258 26.7181 27.5004 26.4089L28.2424 25.4614C28.4702 25.1708 28.672 24.871 28.8477 24.5633L29.1363 24.0577L29.426 23.5512C29.4437 23.52 29.4481 23.501 29.4496 23.4948C29.4439 23.4814 29.426 23.4478 29.3748 23.3949L28.934 22.9396L28.4933 22.4834C28.1189 22.0962 27.8626 21.6394 27.7361 21.1209L27.4451 19.9256C27.3251 19.433 27.3239 18.8887 27.6482 18.4403L27.8882 18.1081L28.1273 17.7769C28.2895 17.5526 28.4995 17.2679 28.7556 16.924L29.1386 16.4089L29.5216 15.8947C29.8945 15.3939 30.5398 15.0248 31.3081 14.7312L31.5728 14.6302Z" fill="#004B80"/>
<rect x="7.6619" y="9.83618" width="7.24175" height="16.3927" rx="1.58002" transform="rotate(3.11288 7.6619 9.83618)" fill="#004B80"/>
<rect x="40.4852" y="39.1141" width="7.24175" height="16.3927" rx="1.58002" transform="rotate(93.1129 40.4852 39.1141)" fill="#004B80"/>
<path d="M29.8186 23.8008C30.0776 23.5326 30.5082 23.5254 30.7769 23.7841L30.7866 23.8005L31.7529 24.3185C32.4858 24.7159 33.0865 25.1852 33.3665 25.771L33.6473 26.3469L33.9225 26.9279C34.1451 27.3937 34.2642 27.9058 34.1225 28.404L33.8868 29.2375C33.8537 29.3537 33.8254 29.4447 33.8086 29.5083C33.8228 29.7933 33.662 30.066 33.381 30.1726C33.0321 30.304 32.6404 30.1298 32.5084 29.7814L32.4899 29.7327L32.4713 29.6841L32.4769 29.6791C32.4432 29.5636 32.4461 29.4701 32.4462 29.4659C32.4472 29.4312 32.4486 29.4007 32.4505 29.3868C32.4543 29.3588 32.4615 29.3343 32.4648 29.3188C32.472 29.2843 32.4821 29.2431 32.4922 29.2039C32.513 29.1232 32.5444 29.011 32.5844 28.8704L32.7022 28.4537L32.8204 28.0316C32.837 27.9713 32.8509 27.8164 32.7058 27.5123L32.4254 26.9311L32.1502 26.3502C32.06 26.1631 31.7738 25.8669 31.1065 25.5053L30.0584 24.9352L29.976 24.8937L29.9109 24.8267L29.8353 24.7591C29.567 24.5 29.5599 24.0695 29.8186 23.8008ZM33.7717 29.3105C33.7813 29.3368 33.7823 29.3642 33.7885 29.3908C33.7869 29.3802 33.7877 29.3659 33.7852 29.3536L33.7717 29.3105Z" fill="#004B80"/>
<path d="M40.2221 8.61327L42.2002 11.2686L45.3369 10.2079L43.4227 12.9098L45.4009 15.5652L42.2397 14.5796L40.3256 17.2815L40.2861 13.9705L37.1249 12.985L40.2616 11.9242L40.2221 8.61327Z" fill="url(#paint0_linear_306_3426)"/>
<path d="M11.3005 31.6602L14.4082 32.7677L16.4218 30.1543L16.3289 33.4521L19.4366 34.5596L16.2714 35.4903L16.1785 38.7881L14.3153 36.0655L11.1501 36.9962L13.1637 34.3828L11.3005 31.6602Z" fill="url(#paint1_linear_306_3426)"/>
<defs>
<linearGradient id="paint0_linear_306_3426" x1="40.2221" y1="8.61327" x2="43.1421" y2="17.2478" gradientUnits="userSpaceOnUse">
<stop stop-color="#F8DC78"/>
<stop offset="1" stop-color="#FBC169"/>
</linearGradient>
<linearGradient id="paint1_linear_306_3426" x1="11.3005" y1="31.6602" x2="18.4945" y2="37.2032" gradientUnits="userSpaceOnUse">
<stop stop-color="#F8DC78"/>
<stop offset="1" stop-color="#FBC169"/>
</linearGradient>
</defs>
</svg>
